PathFileType	4	(X/Y/Z)	C:/Users/beibeiliu/ov580/test_trc/User2\sequence.2_training_dense_right.trc
DataRate	CameraRate	NumFrames	NumMarkers	Units	OrigDataRate	OrigDataStartFrame	OrigNumFrames
120	120	12	19	mm	120	27	78
Frame#	Time	ThumbCMC			ThumbMCP			ThumbIP			ThumbTip			IndexMCP			IndexPIP			IndexTip			MiddleMCP			MiddlePIP			MiddleTip			RingMCP			RingPIP			RingTip			PinkyMCP			PinkyPIP			PinkyTip			BackHand1			BackHand2			BackHand3	
		X0	Y0	Z0	X1	Y1	Z1	X2	Y2	Z2	X3	Y3	Z3	X4	Y4	Z4	X5	Y5	Z5	X6	Y6	Z6	X7	Y7	Z7	X8	Y8	Z8	X9	Y9	Z9	X10	Y10	Z10	X11	Y11	Z11	X12	Y12	Z12	X13	Y13	Z13	X14	Y14	Z14	X15	Y15	Z15	X16	Y16	Z16	X17	Y17	Z17	X18	Y18	Z18	
26	0.216667	206.146	-7.66975	-54.3454	198.454	3.974	-83.4543	188.395	9.45	-116.538	168.111	-2.18422	-137.298	193.107	-56.8174	-116.622	168.794	-50.6289	-138.422	154.898	-17.0545	-129.574	174.952	-73.2288	-113.623	146.302	-55.4569	-135.438	135.225	-23.7093	-118.26	154.057	-77.5405	-108.058	134.67	-57.2328	-124.354	128.068	-25.8703	-107.523	135.188	-79.3819	-86.1848	122.809	-57.5532	-107.745	121.635	-28.7449	-98.3336	178.016	-71.1495	-46.5499	182.752	-62.3781	-14.3405	209.57	-48.5816	-40.5463	
27	0.225	210.93	11.2863	-45.2396	201.462	23.9291	-76.5798	193.731	25.0433	-114.875	181.035	13.1227	-135.529	222.292	-36.7932	-116.513	203.167	-31.7798	-141.071	174.722	-8.64319	-132.754	212.809	-56.176	-117.666	184.927	-48.2908	-142.551	160.541	-19.0566	-126.21	194.224	-70.7493	-109.231	174.047	-55.8621	-132.731	151.283	-31.4494	-116.417	176.993	-78.6633	-95.1273	155.682	-67.1802	-118.487	145.177	-34.0057	-111.357	206.025	-63.8837	-50.3184	205.978	-53.5042	-13.639	226.098	-31.7644	-40.8277	
28	0.233333	199.075	27.6971	-38.1632	189.29	42.2816	-68.9681	182.332	47.8059	-99.7566	179.126	35.9914	-127.416	237.629	7.24855	-111.751	219.652	7.93818	-136.676	181.782	12.6639	-128.214	236.641	-16.9315	-115.522	213.409	-13.5763	-142.29	174.639	-5.37948	-129.395	224.933	-37.9526	-114.387	202.946	-33.3308	-136.453	173.083	-19.8303	-123.492	210.709	-55.2875	-101.297	190.835	-47.115	-126.933	164.675	-32.0851	-122.635	226.12	-38.1182	-47.9896	216.674	-39.0242	-14.2548	229.853	-1.99403	-34.6625	
29	0.241667	181.161	32.8542	-28.0132	166.889	47.6544	-56.9622	160.862	59.8812	-92.324	167.913	48.0738	-119.723	229.148	39.3717	-101.255	214.85	39.4857	-126.51	181.518	28.3463	-124.998	238.913	19.9837	-108.131	215.582	17.5524	-136.249	176.784	12.7061	-126.262	235.753	-4.65217	-107.355	214.139	-1.90713	-133.674	180.046	-2.29156	-122.02	227.738	-25.9328	-99.2919	207.612	-22.2106	-128.254	178.43	-19.6379	-126.727	232.427	-14.7408	-46.1914	222.435	-24.8799	-13.0979	218.13	17.5398	-23.2016	
30	0.25	160.345	31.249	-22.7365	143.796	42.9461	-50.6867	135.891	52.5452	-81.6578	143.171	51.3284	-108.451	203.019	68.4262	-83.2553	194.277	61.9301	-114.106	169.284	40.7983	-118.498	220.835	52.8957	-94.0971	202.313	47.0479	-126.453	172.807	21.948	-121.094	229.536	30.6018	-99.9733	209.734	28.9533	-125.403	179.245	6.83274	-116.418	228.674	7.76592	-94.0241	209.694	9.12225	-120.909	182.981	-1.61994	-122.56	227.414	7.19865	-39.2559	219.562	-7.14794	-11.507	202.113	28.3037	-14.411	
31	0.258333	141.58	20.013	-16.2701	122.588	30.1576	-47.1854	112.782	39.6009	-76.0519	120.438	45.4313	-105.029	172.927	77.0405	-67.9218	163.298	76.3236	-101.9	150.775	44.4967	-110.124	193.081	73.765	-81.416	180.741	64.8091	-114.594	157.82	29.4057	-113.53	206.113	57.069	-88.0517	192.221	48.0775	-115.021	170.669	22.2711	-109.517	217.457	32.7372	-84.9081	199.19	30.5731	-111.523	175.43	9.66179	-112.537	211.016	27.4687	-30.5066	208.807	7.38035	-1.10629	183.091	32.2963	-7.56435	
32	0.266667	124.47	11.7051	-10.9787	105.252	19.5988	-44.4105	93.8033	29.2033	-75.5514	104.733	35.1399	-102.556	146.829	76.7243	-62.4468	136.515	74.9096	-98.4467	131.33	44.7025	-106.044	167.439	75.5626	-73.0274	155.08	67.8752	-109.342	147.816	28.118	-110.029	185.356	62.941	-81.2445	172.738	53.9512	-109.42	160.951	18.6665	-102.332	199.247	42.3116	-77.7753	186.333	34.0707	-108.846	166.176	6.20852	-103.209	196.996	34.3631	-24.3965	198.541	13.4751	-0.568425	164.807	35.9668	-5.57072	
33	0.275	113.98	5.67347	-11.6877	92.6351	5.86268	-40.0181	82.1692	11.7328	-73.8191	91.6509	20.3334	-103.885	126.51	69.8186	-69.8127	122.234	63.5162	-100.881	120.936	28.5974	-105.874	153.688	66.0449	-77.3471	141.593	55.4293	-112.282	133.848	17.2852	-107.945	170.101	55.4001	-87.7402	159.693	40.1715	-111.853	151.995	8.28296	-99.9314	184.595	37.6296	-81.4653	171.113	23.2223	-108.022	157.561	-8.85809	-97.956	181.628	34.6734	-23.7332	182.831	16.807	0.763475	146.126	30.8751	-3.01955	
34	0.283333	104.852	-0.989519	-14.3276	82.8299	-5.71442	-43.6775	77.4699	-7.35179	-73.7986	84.5764	-3.96251	-105.942	119.823	49.5445	-79.0238	110.091	36.0805	-110.752	109.88	3.7749	-106.678	136.318	50.0736	-89.5449	131.201	30.0256	-117.525	125.953	-8.39598	-100.445	157.168	36.2703	-92.4501	150.355	16.5837	-113.959	138.728	-13.7842	-90.9823	173.845	19.6785	-85.4351	161.505	-2.36501	-106.513	148.948	-25.4446	-87.5792	171.228	24.4918	-27.9748	171.643	11.3392	1.88521	135.525	27.0986	-9.78967	
35	0.291667	96.944	-12.6831	-11.1125	76.0437	-22.7931	-44.1806	67.9767	-31.5277	-74.9694	82.8593	-34.2551	-100.264	105.856	25.4944	-90.9705	106.352	5.10033	-113.357	101.504	-28.0235	-103.185	129.567	22.421	-99.9227	124.235	-6.83892	-120.143	122.298	-37.6647	-94.1522	152.065	8.69111	-97.1746	138.902	-18.2681	-112.672	134.35	-40.7941	-82.3594	164.962	-4.50562	-89.9682	153.831	-29.3463	-101.088	143.706	-47.36	-74.1914	158.59	17.0165	-31.918	162.862	6.70175	2.01514	128.671	18.6259	-13.9179	
36	0.3	88.798	-20.7137	-13.5787	70.5028	-39.9599	-35.5507	62.0161	-54.855	-71.1676	74.9022	-64.471	-92.8532	101.702	-5.15209	-95.2723	94.7216	-31.7606	-112.89	97.6915	-59.6543	-92.8774	118.754	-10.192	-103.002	116.337	-43.1101	-114.38	109.161	-67.3324	-80.4336	142.235	-22.3349	-98.0791	132.021	-54.1107	-103.867	124.41	-64.7307	-70.4621	161.143	-33.594	-84.8978	144.383	-66.4045	-87.5206	133.588	-69.1816	-61.529	151.267	0.612055	-37.8074	153.701	2.3311	-7.02477	120.427	8.00942	-17.132	
37	0.308333	86.9156	-21.9351	-8.8363	61.6173	-42.4896	-28.7698	50.3973	-64.0921	-60.2103	63.1646	-79.3112	-80.5325	95.4345	-25.5777	-93.681	89.0937	-54.7882	-105.987	81.0799	-78.5222	-79.1685	114.79	-35.3279	-102.213	107.125	-70.9891	-104.328	100.352	-85.0654	-66.2408	134.938	-47.8751	-96.1116	119.58	-79.3659	-92.6502	110.277	-81.7213	-60.2425	151.742	-61.3649	-81.4482	130.981	-87.7096	-72.4245	120.106	-78.9543	-43.4502	150.95	-11.2851	-42.0958	156.76	-5.50703	-13.1767	119.069	1.90408	-28.3601	
